%TF.GenerationSoftware,KiCad,Pcbnew,(5.1.6)-1*%
%TF.CreationDate,2020-12-17T15:03:58+07:00*%
%TF.ProjectId,Snowduno,536e6f77-6475-46e6-9f2e-6b696361645f,rev?*%
%TF.SameCoordinates,Original*%
%TF.FileFunction,Paste,Bot*%
%TF.FilePolarity,Positive*%
%FSLAX46Y46*%
G04 Gerber Fmt 4.6, Leading zero omitted, Abs format (unit mm)*
G04 Created by KiCad (PCBNEW (5.1.6)-1) date 2020-12-17 15:03:58*
%MOMM*%
%LPD*%
G01*
G04 APERTURE LIST*
%ADD10R,1.200000X1.400000*%
%ADD11R,0.550000X1.600000*%
%ADD12R,1.600000X0.550000*%
%ADD13R,1.000000X1.700000*%
G04 APERTURE END LIST*
D10*
%TO.C,Y1*%
X130980000Y-99130000D03*
X130980000Y-96930000D03*
X129280000Y-96930000D03*
X129280000Y-99130000D03*
%TD*%
D11*
%TO.C,U1*%
X138150000Y-102300000D03*
X138950000Y-102300000D03*
X139750000Y-102300000D03*
X140550000Y-102300000D03*
X141350000Y-102300000D03*
X142150000Y-102300000D03*
X142950000Y-102300000D03*
X143750000Y-102300000D03*
D12*
X145200000Y-100850000D03*
X145200000Y-100050000D03*
X145200000Y-99250000D03*
X145200000Y-98450000D03*
X145200000Y-97650000D03*
X145200000Y-96850000D03*
X145200000Y-96050000D03*
X145200000Y-95250000D03*
D11*
X143750000Y-93800000D03*
X142950000Y-93800000D03*
X142150000Y-93800000D03*
X141350000Y-93800000D03*
X140550000Y-93800000D03*
X139750000Y-93800000D03*
X138950000Y-93800000D03*
X138150000Y-93800000D03*
D12*
X136700000Y-95250000D03*
X136700000Y-96050000D03*
X136700000Y-96850000D03*
X136700000Y-97650000D03*
X136700000Y-98450000D03*
X136700000Y-99250000D03*
X136700000Y-100050000D03*
X136700000Y-100850000D03*
%TD*%
D13*
%TO.C,SW1*%
X148150000Y-88640000D03*
X148150000Y-94940000D03*
X151950000Y-88640000D03*
X151950000Y-94940000D03*
%TD*%
%TO.C,R4*%
G36*
G01*
X154596250Y-97427500D02*
X154083750Y-97427500D01*
G75*
G02*
X153865000Y-97208750I0J218750D01*
G01*
X153865000Y-96771250D01*
G75*
G02*
X154083750Y-96552500I218750J0D01*
G01*
X154596250Y-96552500D01*
G75*
G02*
X154815000Y-96771250I0J-218750D01*
G01*
X154815000Y-97208750D01*
G75*
G02*
X154596250Y-97427500I-218750J0D01*
G01*
G37*
G36*
G01*
X154596250Y-99002500D02*
X154083750Y-99002500D01*
G75*
G02*
X153865000Y-98783750I0J218750D01*
G01*
X153865000Y-98346250D01*
G75*
G02*
X154083750Y-98127500I218750J0D01*
G01*
X154596250Y-98127500D01*
G75*
G02*
X154815000Y-98346250I0J-218750D01*
G01*
X154815000Y-98783750D01*
G75*
G02*
X154596250Y-99002500I-218750J0D01*
G01*
G37*
%TD*%
%TO.C,R3*%
G36*
G01*
X152376250Y-107020000D02*
X151863750Y-107020000D01*
G75*
G02*
X151645000Y-106801250I0J218750D01*
G01*
X151645000Y-106363750D01*
G75*
G02*
X151863750Y-106145000I218750J0D01*
G01*
X152376250Y-106145000D01*
G75*
G02*
X152595000Y-106363750I0J-218750D01*
G01*
X152595000Y-106801250D01*
G75*
G02*
X152376250Y-107020000I-218750J0D01*
G01*
G37*
G36*
G01*
X152376250Y-108595000D02*
X151863750Y-108595000D01*
G75*
G02*
X151645000Y-108376250I0J218750D01*
G01*
X151645000Y-107938750D01*
G75*
G02*
X151863750Y-107720000I218750J0D01*
G01*
X152376250Y-107720000D01*
G75*
G02*
X152595000Y-107938750I0J-218750D01*
G01*
X152595000Y-108376250D01*
G75*
G02*
X152376250Y-108595000I-218750J0D01*
G01*
G37*
%TD*%
%TO.C,R2*%
G36*
G01*
X151853750Y-104417500D02*
X152366250Y-104417500D01*
G75*
G02*
X152585000Y-104636250I0J-218750D01*
G01*
X152585000Y-105073750D01*
G75*
G02*
X152366250Y-105292500I-218750J0D01*
G01*
X151853750Y-105292500D01*
G75*
G02*
X151635000Y-105073750I0J218750D01*
G01*
X151635000Y-104636250D01*
G75*
G02*
X151853750Y-104417500I218750J0D01*
G01*
G37*
G36*
G01*
X151853750Y-102842500D02*
X152366250Y-102842500D01*
G75*
G02*
X152585000Y-103061250I0J-218750D01*
G01*
X152585000Y-103498750D01*
G75*
G02*
X152366250Y-103717500I-218750J0D01*
G01*
X151853750Y-103717500D01*
G75*
G02*
X151635000Y-103498750I0J218750D01*
G01*
X151635000Y-103061250D01*
G75*
G02*
X151853750Y-102842500I218750J0D01*
G01*
G37*
%TD*%
%TO.C,R1*%
G36*
G01*
X145782500Y-87006250D02*
X145782500Y-86493750D01*
G75*
G02*
X146001250Y-86275000I218750J0D01*
G01*
X146438750Y-86275000D01*
G75*
G02*
X146657500Y-86493750I0J-218750D01*
G01*
X146657500Y-87006250D01*
G75*
G02*
X146438750Y-87225000I-218750J0D01*
G01*
X146001250Y-87225000D01*
G75*
G02*
X145782500Y-87006250I0J218750D01*
G01*
G37*
G36*
G01*
X144207500Y-87006250D02*
X144207500Y-86493750D01*
G75*
G02*
X144426250Y-86275000I218750J0D01*
G01*
X144863750Y-86275000D01*
G75*
G02*
X145082500Y-86493750I0J-218750D01*
G01*
X145082500Y-87006250D01*
G75*
G02*
X144863750Y-87225000I-218750J0D01*
G01*
X144426250Y-87225000D01*
G75*
G02*
X144207500Y-87006250I0J218750D01*
G01*
G37*
%TD*%
%TO.C,D2*%
G36*
G01*
X145465000Y-108074999D02*
X145465000Y-110225001D01*
G75*
G02*
X145215001Y-110475000I-249999J0D01*
G01*
X144364999Y-110475000D01*
G75*
G02*
X144115000Y-110225001I0J249999D01*
G01*
X144115000Y-108074999D01*
G75*
G02*
X144364999Y-107825000I249999J0D01*
G01*
X145215001Y-107825000D01*
G75*
G02*
X145465000Y-108074999I0J-249999D01*
G01*
G37*
G36*
G01*
X149965000Y-108074999D02*
X149965000Y-110225001D01*
G75*
G02*
X149715001Y-110475000I-249999J0D01*
G01*
X148864999Y-110475000D01*
G75*
G02*
X148615000Y-110225001I0J249999D01*
G01*
X148615000Y-108074999D01*
G75*
G02*
X148864999Y-107825000I249999J0D01*
G01*
X149715001Y-107825000D01*
G75*
G02*
X149965000Y-108074999I0J-249999D01*
G01*
G37*
%TD*%
%TO.C,D1*%
G36*
G01*
X145810000Y-85296250D02*
X145810000Y-84783750D01*
G75*
G02*
X146028750Y-84565000I218750J0D01*
G01*
X146466250Y-84565000D01*
G75*
G02*
X146685000Y-84783750I0J-218750D01*
G01*
X146685000Y-85296250D01*
G75*
G02*
X146466250Y-85515000I-218750J0D01*
G01*
X146028750Y-85515000D01*
G75*
G02*
X145810000Y-85296250I0J218750D01*
G01*
G37*
G36*
G01*
X144235000Y-85296250D02*
X144235000Y-84783750D01*
G75*
G02*
X144453750Y-84565000I218750J0D01*
G01*
X144891250Y-84565000D01*
G75*
G02*
X145110000Y-84783750I0J-218750D01*
G01*
X145110000Y-85296250D01*
G75*
G02*
X144891250Y-85515000I-218750J0D01*
G01*
X144453750Y-85515000D01*
G75*
G02*
X144235000Y-85296250I0J218750D01*
G01*
G37*
%TD*%
%TO.C,C5*%
G36*
G01*
X129790000Y-94733750D02*
X129790000Y-95246250D01*
G75*
G02*
X129571250Y-95465000I-218750J0D01*
G01*
X129133750Y-95465000D01*
G75*
G02*
X128915000Y-95246250I0J218750D01*
G01*
X128915000Y-94733750D01*
G75*
G02*
X129133750Y-94515000I218750J0D01*
G01*
X129571250Y-94515000D01*
G75*
G02*
X129790000Y-94733750I0J-218750D01*
G01*
G37*
G36*
G01*
X131365000Y-94733750D02*
X131365000Y-95246250D01*
G75*
G02*
X131146250Y-95465000I-218750J0D01*
G01*
X130708750Y-95465000D01*
G75*
G02*
X130490000Y-95246250I0J218750D01*
G01*
X130490000Y-94733750D01*
G75*
G02*
X130708750Y-94515000I218750J0D01*
G01*
X131146250Y-94515000D01*
G75*
G02*
X131365000Y-94733750I0J-218750D01*
G01*
G37*
%TD*%
%TO.C,C4*%
G36*
G01*
X133913750Y-98257500D02*
X134426250Y-98257500D01*
G75*
G02*
X134645000Y-98476250I0J-218750D01*
G01*
X134645000Y-98913750D01*
G75*
G02*
X134426250Y-99132500I-218750J0D01*
G01*
X133913750Y-99132500D01*
G75*
G02*
X133695000Y-98913750I0J218750D01*
G01*
X133695000Y-98476250D01*
G75*
G02*
X133913750Y-98257500I218750J0D01*
G01*
G37*
G36*
G01*
X133913750Y-96682500D02*
X134426250Y-96682500D01*
G75*
G02*
X134645000Y-96901250I0J-218750D01*
G01*
X134645000Y-97338750D01*
G75*
G02*
X134426250Y-97557500I-218750J0D01*
G01*
X133913750Y-97557500D01*
G75*
G02*
X133695000Y-97338750I0J218750D01*
G01*
X133695000Y-96901250D01*
G75*
G02*
X133913750Y-96682500I218750J0D01*
G01*
G37*
%TD*%
%TO.C,C3*%
G36*
G01*
X140816250Y-105687500D02*
X140303750Y-105687500D01*
G75*
G02*
X140085000Y-105468750I0J218750D01*
G01*
X140085000Y-105031250D01*
G75*
G02*
X140303750Y-104812500I218750J0D01*
G01*
X140816250Y-104812500D01*
G75*
G02*
X141035000Y-105031250I0J-218750D01*
G01*
X141035000Y-105468750D01*
G75*
G02*
X140816250Y-105687500I-218750J0D01*
G01*
G37*
G36*
G01*
X140816250Y-107262500D02*
X140303750Y-107262500D01*
G75*
G02*
X140085000Y-107043750I0J218750D01*
G01*
X140085000Y-106606250D01*
G75*
G02*
X140303750Y-106387500I218750J0D01*
G01*
X140816250Y-106387500D01*
G75*
G02*
X141035000Y-106606250I0J-218750D01*
G01*
X141035000Y-107043750D01*
G75*
G02*
X140816250Y-107262500I-218750J0D01*
G01*
G37*
%TD*%
%TO.C,C2*%
G36*
G01*
X130470000Y-101296250D02*
X130470000Y-100783750D01*
G75*
G02*
X130688750Y-100565000I218750J0D01*
G01*
X131126250Y-100565000D01*
G75*
G02*
X131345000Y-100783750I0J-218750D01*
G01*
X131345000Y-101296250D01*
G75*
G02*
X131126250Y-101515000I-218750J0D01*
G01*
X130688750Y-101515000D01*
G75*
G02*
X130470000Y-101296250I0J218750D01*
G01*
G37*
G36*
G01*
X128895000Y-101296250D02*
X128895000Y-100783750D01*
G75*
G02*
X129113750Y-100565000I218750J0D01*
G01*
X129551250Y-100565000D01*
G75*
G02*
X129770000Y-100783750I0J-218750D01*
G01*
X129770000Y-101296250D01*
G75*
G02*
X129551250Y-101515000I-218750J0D01*
G01*
X129113750Y-101515000D01*
G75*
G02*
X128895000Y-101296250I0J218750D01*
G01*
G37*
%TD*%
%TO.C,C1*%
G36*
G01*
X154596250Y-94170000D02*
X154083750Y-94170000D01*
G75*
G02*
X153865000Y-93951250I0J218750D01*
G01*
X153865000Y-93513750D01*
G75*
G02*
X154083750Y-93295000I218750J0D01*
G01*
X154596250Y-93295000D01*
G75*
G02*
X154815000Y-93513750I0J-218750D01*
G01*
X154815000Y-93951250D01*
G75*
G02*
X154596250Y-94170000I-218750J0D01*
G01*
G37*
G36*
G01*
X154596250Y-95745000D02*
X154083750Y-95745000D01*
G75*
G02*
X153865000Y-95526250I0J218750D01*
G01*
X153865000Y-95088750D01*
G75*
G02*
X154083750Y-94870000I218750J0D01*
G01*
X154596250Y-94870000D01*
G75*
G02*
X154815000Y-95088750I0J-218750D01*
G01*
X154815000Y-95526250D01*
G75*
G02*
X154596250Y-95745000I-218750J0D01*
G01*
G37*
%TD*%
M02*
