%TF.GenerationSoftware,KiCad,Pcbnew,(5.1.6)-1*%
%TF.CreationDate,2020-12-17T15:03:58+07:00*%
%TF.ProjectId,Snowduno,536e6f77-6475-46e6-9f2e-6b696361645f,rev?*%
%TF.SameCoordinates,Original*%
%TF.FileFunction,Legend,Bot*%
%TF.FilePolarity,Positive*%
%FSLAX46Y46*%
G04 Gerber Fmt 4.6, Leading zero omitted, Abs format (unit mm)*
G04 Created by KiCad (PCBNEW (5.1.6)-1) date 2020-12-17 15:03:58*
%MOMM*%
%LPD*%
G01*
G04 APERTURE LIST*
%ADD10C,0.120000*%
%ADD11C,0.150000*%
G04 APERTURE END LIST*
D10*
%TO.C,Y1*%
X128480000Y-100030000D02*
X128480000Y-96030000D01*
X131780000Y-100030000D02*
X128480000Y-100030000D01*
D11*
%TO.C,U1*%
X137325000Y-101450000D02*
X135900000Y-101450000D01*
X144575000Y-101675000D02*
X144250000Y-101675000D01*
X144575000Y-94425000D02*
X144250000Y-94425000D01*
X137325000Y-94425000D02*
X137650000Y-94425000D01*
X137325000Y-101675000D02*
X137650000Y-101675000D01*
X137325000Y-94425000D02*
X137325000Y-94750000D01*
X144575000Y-94425000D02*
X144575000Y-94750000D01*
X144575000Y-101675000D02*
X144575000Y-101350000D01*
X137325000Y-101675000D02*
X137325000Y-101450000D01*
D10*
%TO.C,SW1*%
X152800000Y-93040000D02*
X152800000Y-90540000D01*
X151050000Y-94540000D02*
X149050000Y-94540000D01*
X147300000Y-93040000D02*
X147300000Y-90540000D01*
X151050000Y-89040000D02*
X149050000Y-89040000D01*
X152350000Y-93490000D02*
X152800000Y-93040000D01*
X152350000Y-90090000D02*
X152800000Y-90540000D01*
X147750000Y-90090000D02*
X147300000Y-90540000D01*
X147750000Y-93490000D02*
X147300000Y-93040000D01*
%TO.C,R4*%
X153830000Y-97940279D02*
X153830000Y-97614721D01*
X154850000Y-97940279D02*
X154850000Y-97614721D01*
%TO.C,R3*%
X151610000Y-107532779D02*
X151610000Y-107207221D01*
X152630000Y-107532779D02*
X152630000Y-107207221D01*
%TO.C,R2*%
X152620000Y-103904721D02*
X152620000Y-104230279D01*
X151600000Y-103904721D02*
X151600000Y-104230279D01*
%TO.C,R1*%
X145269721Y-86240000D02*
X145595279Y-86240000D01*
X145269721Y-87260000D02*
X145595279Y-87260000D01*
%TO.C,D2*%
X150225000Y-110735000D02*
X144540000Y-110735000D01*
X150225000Y-107565000D02*
X150225000Y-110735000D01*
X144540000Y-107565000D02*
X150225000Y-107565000D01*
%TO.C,D1*%
X143975000Y-84305000D02*
X146260000Y-84305000D01*
X143975000Y-85775000D02*
X143975000Y-84305000D01*
X146260000Y-85775000D02*
X143975000Y-85775000D01*
%TO.C,C5*%
X130302779Y-95500000D02*
X129977221Y-95500000D01*
X130302779Y-94480000D02*
X129977221Y-94480000D01*
%TO.C,C4*%
X134680000Y-97744721D02*
X134680000Y-98070279D01*
X133660000Y-97744721D02*
X133660000Y-98070279D01*
%TO.C,C3*%
X140050000Y-106200279D02*
X140050000Y-105874721D01*
X141070000Y-106200279D02*
X141070000Y-105874721D01*
%TO.C,C2*%
X129957221Y-100530000D02*
X130282779Y-100530000D01*
X129957221Y-101550000D02*
X130282779Y-101550000D01*
%TO.C,C1*%
X153830000Y-94682779D02*
X153830000Y-94357221D01*
X154850000Y-94682779D02*
X154850000Y-94357221D01*
%TO.C,Y1*%
D11*
X127576190Y-99023809D02*
X128052380Y-99023809D01*
X127052380Y-98690476D02*
X127576190Y-99023809D01*
X127052380Y-99357142D01*
X128052380Y-100214285D02*
X128052380Y-99642857D01*
X128052380Y-99928571D02*
X127052380Y-99928571D01*
X127195238Y-99833333D01*
X127290476Y-99738095D01*
X127338095Y-99642857D01*
%TO.C,U1*%
X145961904Y-103652380D02*
X145961904Y-104461904D01*
X145914285Y-104557142D01*
X145866666Y-104604761D01*
X145771428Y-104652380D01*
X145580952Y-104652380D01*
X145485714Y-104604761D01*
X145438095Y-104557142D01*
X145390476Y-104461904D01*
X145390476Y-103652380D01*
X144390476Y-104652380D02*
X144961904Y-104652380D01*
X144676190Y-104652380D02*
X144676190Y-103652380D01*
X144771428Y-103795238D01*
X144866666Y-103890476D01*
X144961904Y-103938095D01*
%TO.C,SW1*%
X154204761Y-87666666D02*
X154252380Y-87809523D01*
X154252380Y-88047619D01*
X154204761Y-88142857D01*
X154157142Y-88190476D01*
X154061904Y-88238095D01*
X153966666Y-88238095D01*
X153871428Y-88190476D01*
X153823809Y-88142857D01*
X153776190Y-88047619D01*
X153728571Y-87857142D01*
X153680952Y-87761904D01*
X153633333Y-87714285D01*
X153538095Y-87666666D01*
X153442857Y-87666666D01*
X153347619Y-87714285D01*
X153300000Y-87761904D01*
X153252380Y-87857142D01*
X153252380Y-88095238D01*
X153300000Y-88238095D01*
X153252380Y-88571428D02*
X154252380Y-88809523D01*
X153538095Y-89000000D01*
X154252380Y-89190476D01*
X153252380Y-89428571D01*
X154252380Y-90333333D02*
X154252380Y-89761904D01*
X154252380Y-90047619D02*
X153252380Y-90047619D01*
X153395238Y-89952380D01*
X153490476Y-89857142D01*
X153538095Y-89761904D01*
%TO.C,R4*%
X153252380Y-98133333D02*
X152776190Y-97800000D01*
X153252380Y-97561904D02*
X152252380Y-97561904D01*
X152252380Y-97942857D01*
X152300000Y-98038095D01*
X152347619Y-98085714D01*
X152442857Y-98133333D01*
X152585714Y-98133333D01*
X152680952Y-98085714D01*
X152728571Y-98038095D01*
X152776190Y-97942857D01*
X152776190Y-97561904D01*
X152585714Y-98990476D02*
X153252380Y-98990476D01*
X152204761Y-98752380D02*
X152919047Y-98514285D01*
X152919047Y-99133333D01*
%TO.C,R3*%
X154002380Y-107203333D02*
X153526190Y-106870000D01*
X154002380Y-106631904D02*
X153002380Y-106631904D01*
X153002380Y-107012857D01*
X153050000Y-107108095D01*
X153097619Y-107155714D01*
X153192857Y-107203333D01*
X153335714Y-107203333D01*
X153430952Y-107155714D01*
X153478571Y-107108095D01*
X153526190Y-107012857D01*
X153526190Y-106631904D01*
X153002380Y-107536666D02*
X153002380Y-108155714D01*
X153383333Y-107822380D01*
X153383333Y-107965238D01*
X153430952Y-108060476D01*
X153478571Y-108108095D01*
X153573809Y-108155714D01*
X153811904Y-108155714D01*
X153907142Y-108108095D01*
X153954761Y-108060476D01*
X154002380Y-107965238D01*
X154002380Y-107679523D01*
X153954761Y-107584285D01*
X153907142Y-107536666D01*
%TO.C,R2*%
X154052380Y-103900833D02*
X153576190Y-103567500D01*
X154052380Y-103329404D02*
X153052380Y-103329404D01*
X153052380Y-103710357D01*
X153100000Y-103805595D01*
X153147619Y-103853214D01*
X153242857Y-103900833D01*
X153385714Y-103900833D01*
X153480952Y-103853214D01*
X153528571Y-103805595D01*
X153576190Y-103710357D01*
X153576190Y-103329404D01*
X153147619Y-104281785D02*
X153100000Y-104329404D01*
X153052380Y-104424642D01*
X153052380Y-104662738D01*
X153100000Y-104757976D01*
X153147619Y-104805595D01*
X153242857Y-104853214D01*
X153338095Y-104853214D01*
X153480952Y-104805595D01*
X154052380Y-104234166D01*
X154052380Y-104853214D01*
%TO.C,R1*%
X142766666Y-87252380D02*
X143100000Y-86776190D01*
X143338095Y-87252380D02*
X143338095Y-86252380D01*
X142957142Y-86252380D01*
X142861904Y-86300000D01*
X142814285Y-86347619D01*
X142766666Y-86442857D01*
X142766666Y-86585714D01*
X142814285Y-86680952D01*
X142861904Y-86728571D01*
X142957142Y-86776190D01*
X143338095Y-86776190D01*
X141814285Y-87252380D02*
X142385714Y-87252380D01*
X142100000Y-87252380D02*
X142100000Y-86252380D01*
X142195238Y-86395238D01*
X142290476Y-86490476D01*
X142385714Y-86538095D01*
%TO.C,D2*%
X147778095Y-107322380D02*
X147778095Y-106322380D01*
X147540000Y-106322380D01*
X147397142Y-106370000D01*
X147301904Y-106465238D01*
X147254285Y-106560476D01*
X147206666Y-106750952D01*
X147206666Y-106893809D01*
X147254285Y-107084285D01*
X147301904Y-107179523D01*
X147397142Y-107274761D01*
X147540000Y-107322380D01*
X147778095Y-107322380D01*
X146825714Y-106417619D02*
X146778095Y-106370000D01*
X146682857Y-106322380D01*
X146444761Y-106322380D01*
X146349523Y-106370000D01*
X146301904Y-106417619D01*
X146254285Y-106512857D01*
X146254285Y-106608095D01*
X146301904Y-106750952D01*
X146873333Y-107322380D01*
X146254285Y-107322380D01*
%TO.C,D1*%
X143538095Y-85552380D02*
X143538095Y-84552380D01*
X143300000Y-84552380D01*
X143157142Y-84600000D01*
X143061904Y-84695238D01*
X143014285Y-84790476D01*
X142966666Y-84980952D01*
X142966666Y-85123809D01*
X143014285Y-85314285D01*
X143061904Y-85409523D01*
X143157142Y-85504761D01*
X143300000Y-85552380D01*
X143538095Y-85552380D01*
X142014285Y-85552380D02*
X142585714Y-85552380D01*
X142300000Y-85552380D02*
X142300000Y-84552380D01*
X142395238Y-84695238D01*
X142490476Y-84790476D01*
X142585714Y-84838095D01*
%TO.C,C5*%
X130306666Y-93917142D02*
X130354285Y-93964761D01*
X130497142Y-94012380D01*
X130592380Y-94012380D01*
X130735238Y-93964761D01*
X130830476Y-93869523D01*
X130878095Y-93774285D01*
X130925714Y-93583809D01*
X130925714Y-93440952D01*
X130878095Y-93250476D01*
X130830476Y-93155238D01*
X130735238Y-93060000D01*
X130592380Y-93012380D01*
X130497142Y-93012380D01*
X130354285Y-93060000D01*
X130306666Y-93107619D01*
X129401904Y-93012380D02*
X129878095Y-93012380D01*
X129925714Y-93488571D01*
X129878095Y-93440952D01*
X129782857Y-93393333D01*
X129544761Y-93393333D01*
X129449523Y-93440952D01*
X129401904Y-93488571D01*
X129354285Y-93583809D01*
X129354285Y-93821904D01*
X129401904Y-93917142D01*
X129449523Y-93964761D01*
X129544761Y-94012380D01*
X129782857Y-94012380D01*
X129878095Y-93964761D01*
X129925714Y-93917142D01*
%TO.C,C4*%
X133097142Y-97740833D02*
X133144761Y-97693214D01*
X133192380Y-97550357D01*
X133192380Y-97455119D01*
X133144761Y-97312261D01*
X133049523Y-97217023D01*
X132954285Y-97169404D01*
X132763809Y-97121785D01*
X132620952Y-97121785D01*
X132430476Y-97169404D01*
X132335238Y-97217023D01*
X132240000Y-97312261D01*
X132192380Y-97455119D01*
X132192380Y-97550357D01*
X132240000Y-97693214D01*
X132287619Y-97740833D01*
X132525714Y-98597976D02*
X133192380Y-98597976D01*
X132144761Y-98359880D02*
X132859047Y-98121785D01*
X132859047Y-98740833D01*
%TO.C,C3*%
X142347142Y-105870833D02*
X142394761Y-105823214D01*
X142442380Y-105680357D01*
X142442380Y-105585119D01*
X142394761Y-105442261D01*
X142299523Y-105347023D01*
X142204285Y-105299404D01*
X142013809Y-105251785D01*
X141870952Y-105251785D01*
X141680476Y-105299404D01*
X141585238Y-105347023D01*
X141490000Y-105442261D01*
X141442380Y-105585119D01*
X141442380Y-105680357D01*
X141490000Y-105823214D01*
X141537619Y-105870833D01*
X141442380Y-106204166D02*
X141442380Y-106823214D01*
X141823333Y-106489880D01*
X141823333Y-106632738D01*
X141870952Y-106727976D01*
X141918571Y-106775595D01*
X142013809Y-106823214D01*
X142251904Y-106823214D01*
X142347142Y-106775595D01*
X142394761Y-106727976D01*
X142442380Y-106632738D01*
X142442380Y-106347023D01*
X142394761Y-106251785D01*
X142347142Y-106204166D01*
%TO.C,C2*%
X130286666Y-102827142D02*
X130334285Y-102874761D01*
X130477142Y-102922380D01*
X130572380Y-102922380D01*
X130715238Y-102874761D01*
X130810476Y-102779523D01*
X130858095Y-102684285D01*
X130905714Y-102493809D01*
X130905714Y-102350952D01*
X130858095Y-102160476D01*
X130810476Y-102065238D01*
X130715238Y-101970000D01*
X130572380Y-101922380D01*
X130477142Y-101922380D01*
X130334285Y-101970000D01*
X130286666Y-102017619D01*
X129905714Y-102017619D02*
X129858095Y-101970000D01*
X129762857Y-101922380D01*
X129524761Y-101922380D01*
X129429523Y-101970000D01*
X129381904Y-102017619D01*
X129334285Y-102112857D01*
X129334285Y-102208095D01*
X129381904Y-102350952D01*
X129953333Y-102922380D01*
X129334285Y-102922380D01*
%TO.C,C1*%
X154657142Y-91833333D02*
X154704761Y-91785714D01*
X154752380Y-91642857D01*
X154752380Y-91547619D01*
X154704761Y-91404761D01*
X154609523Y-91309523D01*
X154514285Y-91261904D01*
X154323809Y-91214285D01*
X154180952Y-91214285D01*
X153990476Y-91261904D01*
X153895238Y-91309523D01*
X153800000Y-91404761D01*
X153752380Y-91547619D01*
X153752380Y-91642857D01*
X153800000Y-91785714D01*
X153847619Y-91833333D01*
X154752380Y-92785714D02*
X154752380Y-92214285D01*
X154752380Y-92500000D02*
X153752380Y-92500000D01*
X153895238Y-92404761D01*
X153990476Y-92309523D01*
X154038095Y-92214285D01*
%TD*%
M02*
