M48
; DRILL file {KiCad (5.1.6)-1} date 12/17/20 15:04:06
; FORMAT={3:3/ absolute / metric / suppress leading zeros}
; #@! TF.CreationDate,2020-12-17T15:04:06+07:00
; #@! TF.GenerationSoftware,Kicad,Pcbnew,(5.1.6)-1
FMAT,2
METRIC,TZ
T1C0.400
T2C0.650
T3C2.700
T4C3.200
%
G90
G05
T1
X129300Y-93200
X132140Y-104765
X132180Y-89770
X132760Y-107080
X133170Y-97140
X136680Y-106470
X136690Y-103180
X138500Y-99500
X140950Y-85250
X143260Y-106320
X143400Y-83800
X143500Y-98800
X144136Y-111550
X144640Y-88450
X144861Y-112415
X145190Y-91060
X146300Y-107400
X147113Y-101513
X147160Y-96840
X147160Y-98580
X148200Y-86500
X148700Y-96600
X149800Y-107000
X149900Y-89600
X150710Y-102000
X151100Y-97700
X155200Y-92300
T2
X132760Y-109260
X134030Y-109260
X135300Y-109260
X136570Y-109260
X137840Y-109260
X139110Y-109260
X140380Y-109260
X141650Y-109260
T3
X149949Y-136055
X106237Y-94179
X103540Y-109260
X169358Y-71260
X112540Y-71260
X126949Y-130055
X149949Y-60055
X112540Y-124849
X131949Y-60055
X154949Y-66055
X120237Y-126179
X120237Y-69930
X178358Y-86849
X161662Y-69930
X161662Y-126179
X175662Y-101930
X175662Y-94179
X126949Y-66055
X169358Y-124849
X178358Y-109260
X131949Y-136055
X103540Y-86849
X106237Y-101930
X154949Y-130055
T4
X101112Y-75055
X140949Y-52055
X101112Y-121055
X180787Y-75055
X180787Y-121055
X140949Y-144055
T0
M30
